<svg width="20" height="26" viewBox="0 0 20 26" fill="none" xmlns="http://www.w3.org/2000/svg">
<path d="M9.99494 6.15601V10.19" stroke="#ADA7A7" stroke-width="1.5" stroke-miterlimit="10" stroke-linecap="round"/>
<path d="M10.0156 0.777249C6.20186 0.777249 3.11359 4.38728 3.11359 8.84531V11.3893C3.11359 12.2131 2.82341 13.4487 2.4607 14.1513L1.14456 16.7195C0.336216 18.3065 0.895835 20.0752 2.38815 20.6567C7.34182 22.5828 12.6997 22.5828 17.6533 20.6567C19.0524 20.1115 19.6535 18.1975 18.8969 16.7195L17.5808 14.1513C17.2181 13.4487 16.9279 12.2009 16.9279 11.3893V8.84531C16.9175 4.41151 13.8085 0.777249 10.0156 0.777249Z" stroke="#ADA7A7" stroke-width="1.5" stroke-miterlimit="10" stroke-linecap="round"/>
<path d="M13.4458 21.1532C13.4458 23.3701 11.8913 25.1873 9.99486 25.1873C9.0518 25.1873 8.18128 24.7269 7.55948 24.0001C6.93768 23.2732 6.54387 22.2556 6.54387 21.1532" stroke="#ADA7A7" stroke-width="1.5" stroke-miterlimit="10"/>
</svg>
