<svg width="25" height="25" viewBox="0 0 25 25" fill="none" xmlns="http://www.w3.org/2000/svg">
<path d="M12.5009 22.9157C11.0775 22.9159 9.73214 22.6426 8.46487 22.096C7.1976 21.5493 6.09087 20.803 5.1447 19.857C4.19852 18.9111 3.45195 17.8045 2.90499 16.5374C2.35804 15.2703 2.08447 13.925 2.08431 12.5015C2.08414 11.0607 2.35738 9.71104 2.90404 8.45244C3.4507 7.19385 4.19701 6.09147 5.14296 5.14529C6.08892 4.19912 7.19546 3.45255 8.46261 2.90559C9.72975 2.35863 11.075 2.08507 12.4985 2.0849C13.9393 2.08473 15.289 2.35798 16.5476 2.90464C17.8061 3.4513 18.9085 4.19761 19.8547 5.14356C20.8009 6.08951 21.5475 7.19172 22.0944 8.45018C22.6414 9.70865 22.9149 11.0583 22.9151 12.4991C22.9153 13.9225 22.642 15.2679 22.0954 16.5351C21.5487 17.8024 20.8024 18.9091 19.8564 19.8553C18.9105 20.8015 17.8083 21.548 16.5498 22.095C15.2914 22.642 13.9417 22.9155 12.5009 22.9157ZM12.5007 20.7805C12.9519 20.1556 13.3424 19.5046 13.6722 18.8275C14.0019 18.1505 14.2709 17.43 14.4791 16.6662L10.5213 16.6667C10.7297 17.4305 10.9988 18.1508 11.3287 18.8278C11.6586 19.5048 12.0493 20.1557 12.5007 20.7805ZM9.79263 20.3642C9.4801 19.7914 9.20662 19.1969 8.9722 18.5807C8.73778 17.9645 8.54242 17.3266 8.38611 16.6669L5.31357 16.6673C5.81708 17.5352 6.44644 18.2902 7.20163 18.9324C7.95682 19.5746 8.82048 20.0519 9.79263 20.3642ZM15.2086 20.3636C16.1807 20.051 17.0443 19.5736 17.7993 18.9312C18.5543 18.2888 19.1835 17.5336 19.6868 16.6656L16.6143 16.666C16.4581 17.3256 16.2629 17.9636 16.0286 18.5799C15.7944 19.1961 15.521 19.7907 15.2086 20.3636ZM4.42802 14.5843L7.96925 14.5839C7.91713 14.2367 7.87803 13.8939 7.85196 13.5554C7.82588 13.2169 7.81282 12.8654 7.81277 12.5009C7.81273 12.1363 7.82571 11.7848 7.85171 11.4463C7.87771 11.1078 7.91672 10.7649 7.96876 10.4178L4.42752 10.4182C4.34077 10.7654 4.27571 11.1082 4.23236 11.4467C4.189 11.7852 4.16734 12.1367 4.16739 12.5013C4.16743 12.8658 4.18917 13.2173 4.23261 13.5558C4.27604 13.8943 4.34118 14.2372 4.42802 14.5843ZM10.0523 14.5837L14.9476 14.5831C14.9996 14.2359 15.0386 13.8931 15.0646 13.5546C15.0906 13.2161 15.1036 12.8645 15.1036 12.5C15.1035 12.1355 15.0904 11.7839 15.0644 11.4454C15.0383 11.1069 14.9992 10.7641 14.9471 10.4169L10.0518 10.4175C9.9998 10.7647 9.96078 11.1075 9.93479 11.446C9.90879 11.7845 9.89581 12.1361 9.89585 12.5006C9.8959 12.8651 9.90896 13.2167 9.93503 13.5552C9.96111 13.8937 10.0002 14.2365 10.0523 14.5837ZM17.0306 14.5828L20.5719 14.5824C20.6586 14.2352 20.7237 13.8924 20.767 13.5539C20.8104 13.2154 20.8321 12.8639 20.832 12.4993C20.832 12.1348 20.8102 11.7833 20.7668 11.4448C20.7234 11.1063 20.6582 10.7634 20.5714 10.4163L17.0302 10.4167C17.0823 10.7639 17.1214 11.1067 17.1474 11.4452C17.1735 11.7837 17.1866 12.1352 17.1866 12.4997C17.1867 12.8643 17.1737 13.2158 17.1477 13.5543C17.1217 13.8928 17.0827 14.2357 17.0306 14.5828ZM16.6133 8.33366L19.6858 8.33329C19.1823 7.4654 18.553 6.71036 17.7978 6.06817C17.0426 5.42597 16.1789 4.9487 15.2068 4.63636C15.5193 5.20917 15.7928 5.80368 16.0272 6.4199C16.2616 7.03611 16.457 7.67403 16.6133 8.33366ZM10.5203 8.33437L14.4781 8.33391C14.2697 7.57014 14.0006 6.84977 13.6707 6.17281C13.3408 5.49585 12.9501 4.84493 12.4987 4.22006C12.0475 4.84504 11.657 5.49604 11.3272 6.17308C10.9975 6.85012 10.7285 7.57055 10.5203 8.33437ZM5.31259 8.33499L8.38513 8.33463C8.54128 7.67497 8.7365 7.037 8.97077 6.42073C9.20504 5.80446 9.47838 5.20988 9.79077 4.63699C8.81871 4.94957 7.95515 5.42704 7.20011 6.06942C6.44507 6.71179 5.8159 7.46698 5.31259 8.33499Z" fill="#938F99"/>
</svg>
