<svg width="22" height="23" viewBox="0 0 22 23" fill="none" xmlns="http://www.w3.org/2000/svg">
<path d="M17.1346 10.1459V14.4133C17.1346 14.6907 17.1244 14.9574 17.0937 15.2135C16.8581 18.094 15.2297 19.5236 12.2288 19.5236H11.8191C11.5631 19.5236 11.3173 19.6516 11.1636 19.865L9.93462 21.5719C9.3918 22.3294 8.51099 22.3294 7.96817 21.5719L6.73913 19.865C6.60599 19.6836 6.30899 19.5236 6.08367 19.5236H5.674C2.40685 19.5236 0.76814 18.6808 0.76814 14.4133V10.1459C0.76814 7.01997 2.1508 5.32366 4.90586 5.07829C5.15167 5.04628 5.40771 5.0356 5.674 5.0356H12.2288C15.4959 5.0356 17.1346 6.74259 17.1346 10.1459Z" stroke="#292D32" stroke-width="1.5" stroke-miterlimit="10" stroke-linecap="round" stroke-linejoin="round"/>
<path d="M21.2314 5.87841V10.1459C21.2314 13.2824 19.8488 14.9681 17.0937 15.2134C17.1244 14.9574 17.1347 14.6907 17.1347 14.4133V10.1459C17.1347 6.74257 15.496 5.03558 12.2288 5.03558H5.67403C5.40774 5.03558 5.1517 5.04626 4.90589 5.07827C5.14145 2.20841 6.76991 0.76814 9.77078 0.76814H16.3256C19.5927 0.76814 21.2314 2.47513 21.2314 5.87841Z" stroke="#292D32" stroke-width="1.5" stroke-miterlimit="10" stroke-linecap="round" stroke-linejoin="round"/>
<path d="M12.5417 12.7703H12.5509" stroke="#292D32" stroke-width="2" stroke-linecap="round" stroke-linejoin="round"/>
<path d="M8.95702 12.7703H8.96624" stroke="#292D32" stroke-width="2" stroke-linecap="round" stroke-linejoin="round"/>
<path d="M5.37237 12.7703H5.38159" stroke="#292D32" stroke-width="2" stroke-linecap="round" stroke-linejoin="round"/>
</svg>
