<svg width="27" height="29" viewBox="0 0 27 29" fill="none" xmlns="http://www.w3.org/2000/svg">
<path d="M8.21625 12.3136L5.72922 15.0123C4.80038 16.0202 4.26624 17.3917 4.276 18.833C4.28576 20.2743 4.80822 21.6541 5.78113 22.6772C6.72394 23.733 7.99574 24.2999 9.32376 24.3105C10.6821 24.3213 11.916 23.7744 12.8449 22.7664L15.3319 20.0677M18.5086 16.6864L20.9956 13.9877C21.9245 12.9798 22.4586 11.6084 22.4489 10.167C22.4391 8.72573 21.9166 7.34595 20.9437 6.32281C20.0011 5.29998 18.7296 4.73302 17.4013 4.72243C16.0731 4.71183 14.8091 5.25855 13.8802 6.26649L11.3932 8.96524M9.59101 18.5203L17.0521 10.4241" stroke="black" stroke-width="2" stroke-linecap="round" stroke-linejoin="round"/>
</svg>
