<svg width="30" height="24" viewBox="0 0 30 24" fill="none" xmlns="http://www.w3.org/2000/svg">
<path d="M14.6884 9.00462C17.3924 9.00462 19.5845 10.7955 19.5845 13.0046C19.5845 15.2138 17.3924 17.0046 14.6884 17.0046C11.9843 17.0046 9.79221 15.2138 9.79221 13.0046C9.79221 10.7955 11.9843 9.00462 14.6884 9.00462ZM14.6884 5.5C20.3355 5.5 25.2103 8.65001 26.5628 13.0644C26.686 13.4662 26.3871 13.8735 25.8953 13.9741C25.4033 14.0746 24.9049 13.8305 24.7817 13.4286C23.6325 9.67796 19.4882 7 14.6884 7C9.88639 7 5.74079 9.68026 4.59357 13.4332C4.47073 13.835 3.97238 14.0794 3.48047 13.9791C2.98857 13.8787 2.68939 13.4716 2.81224 13.0697C4.16246 8.65272 9.03881 5.5 14.6884 5.5Z" fill="#ABB1BB"/>
</svg>
