<svg width="42" height="34" viewBox="0 0 42 34" fill="none" xmlns="http://www.w3.org/2000/svg">
<g clip-path="url(#clip0_1_2727)">
<path d="M21.1889 12.4338C24.3658 9.90905 29.4566 9.96646 32.547 12.5619C35.6227 15.145 35.6699 19.2347 32.4781 21.7713C29.3012 24.2961 24.2103 24.2386 21.12 21.6432C20.6665 21.2624 20.2854 20.8331 19.9731 20.3872C19.3642 20.8371 18.4239 20.8157 17.8468 20.331L16.3504 19.0743L14.8122 20.2968C14.2053 20.7791 13.2349 20.7681 12.6446 20.2724L11.1482 19.0157L10.0495 19.8889C9.19992 20.564 7.84128 20.5487 7.01486 19.8546L4.8772 18.0593C4.05078 17.3653 4.06954 16.2553 4.91909 15.5801L6.82794 14.0631C7.46899 13.5537 8.33159 13.2731 9.22587 13.2832L20.0391 13.4052C20.1336 13.4062 20.2389 13.368 20.3129 13.2844C20.5634 13.001 20.8485 12.7043 21.1889 12.4338ZM30.5474 17.9947C31.1542 17.5124 31.1676 16.7196 30.5773 16.2238C29.987 15.7281 29.0166 15.7171 28.4098 16.1994C27.8029 16.6816 27.7895 17.4745 28.3798 17.9702C28.9701 18.466 29.9406 18.4769 30.5474 17.9947Z" fill="#ABB1BB"/>
</g>
<defs>
<clipPath id="clip0_1_2727">
<rect width="26.7495" height="26.8972" fill="white" transform="matrix(0.767174 0.644307 -0.784322 0.623318 21.0959 0)"/>
</clipPath>
</defs>
</svg>
