<svg width="24" height="20" viewBox="0 0 24 20" fill="none" xmlns="http://www.w3.org/2000/svg">
<path d="M7.37851 8.49164L5.14505 10.3529C4.31092 11.048 3.83124 11.9938 3.84001 12.9878C3.84877 13.9818 4.31796 14.9334 5.19167 15.639C6.03836 16.3671 7.18048 16.7581 8.3731 16.7654C9.59293 16.7728 10.701 16.3956 11.5352 15.7005L13.7687 13.8393M16.6215 11.5074L18.8549 9.64619C19.6891 8.95108 20.1688 8.00528 20.16 7.01127C20.1512 6.01726 19.682 5.06568 18.8083 4.36007C17.9618 3.65467 16.8199 3.26366 15.6271 3.25636C14.4343 3.24905 13.2992 3.62609 12.465 4.32123L10.2315 6.18244M8.6131 12.7722L15.3135 7.18852" stroke="black" stroke-width="2" stroke-linecap="round" stroke-linejoin="round"/>
</svg>
