<svg width="32" height="32" viewBox="0 0 32 32" fill="none" xmlns="http://www.w3.org/2000/svg">
<path d="M25.0736 14.1343V20.2201C25.0736 20.6157 25.0584 20.9961 25.0127 21.3612C24.6628 25.4692 22.2437 27.5079 17.7858 27.5079H17.1772C16.7969 27.5079 16.4317 27.6905 16.2035 27.9947L14.3778 30.4291C13.5714 31.5093 12.2629 31.5093 11.4565 30.4291L9.63078 27.9947C9.43299 27.7361 8.9918 27.5079 8.65708 27.5079H8.04851C3.19507 27.5079 0.760727 26.306 0.760727 20.2201V14.1343C0.760727 9.67646 2.8147 7.25735 6.90741 6.90741C7.27256 6.86177 7.65293 6.84654 8.04851 6.84654H17.7858C22.6392 6.84654 25.0736 9.28088 25.0736 14.1343Z" stroke="#292D32" stroke-width="1.5" stroke-miterlimit="10" stroke-linecap="round" stroke-linejoin="round"/>
<path d="M31.1589 8.04851V14.1343C31.1589 18.6074 29.105 21.0113 25.0123 21.3612C25.0579 20.9961 25.0731 20.6157 25.0731 20.2201V14.1343C25.0731 9.28088 22.6388 6.84654 17.7854 6.84654H8.04806C7.65248 6.84654 7.27211 6.86177 6.90697 6.90741C7.2569 2.8147 9.67601 0.760727 14.1339 0.760727H23.8712C28.7246 0.760727 31.1589 3.19507 31.1589 8.04851Z" stroke="#292D32" stroke-width="1.5" stroke-miterlimit="10" stroke-linecap="round" stroke-linejoin="round"/>
<path d="M18.2506 17.8771H18.2643" stroke="#292D32" stroke-width="2" stroke-linecap="round" stroke-linejoin="round"/>
<path d="M12.9255 17.8771H12.9392" stroke="#292D32" stroke-width="2" stroke-linecap="round" stroke-linejoin="round"/>
<path d="M7.60042 17.8771H7.61412" stroke="#292D32" stroke-width="2" stroke-linecap="round" stroke-linejoin="round"/>
</svg>
