<svg width="21" height="22" viewBox="0 0 21 22" fill="none" xmlns="http://www.w3.org/2000/svg">
<path d="M16.3444 9.57943V13.596C16.3444 13.857 16.3346 14.1081 16.3054 14.3491C16.081 17.0602 14.5296 18.4057 11.6709 18.4057H11.2806C11.0367 18.4057 10.8025 18.5262 10.6562 18.7271L9.48541 20.3337C8.9683 21.0466 8.1292 21.0466 7.6121 20.3337L6.44127 18.7271C6.31444 18.5564 6.03151 18.4057 5.81686 18.4057H5.42659C2.31419 18.4057 0.753099 17.6125 0.753099 13.596V9.57943C0.753099 6.63732 2.07027 5.04075 4.69484 4.8098C4.929 4.77968 5.17292 4.76963 5.42659 4.76963H11.6709C14.7833 4.76963 16.3444 6.37625 16.3444 9.57943Z" stroke="#292D32" stroke-width="1.5" stroke-miterlimit="10" stroke-linecap="round" stroke-linejoin="round"/>
<path d="M20.2469 5.5629V9.57943C20.2469 12.5316 18.9297 14.1181 16.3051 14.3491C16.3344 14.1081 16.3442 13.857 16.3442 13.596V9.57943C16.3442 6.37625 14.7831 4.76963 11.6707 4.76963H5.42637C5.17269 4.76963 4.92878 4.77968 4.69461 4.8098C4.91902 2.10869 6.47034 0.753099 9.32907 0.753099H15.5734C18.6858 0.753099 20.2469 2.35972 20.2469 5.5629Z" stroke="#292D32" stroke-width="1.5" stroke-miterlimit="10" stroke-linecap="round" stroke-linejoin="round"/>
<path d="M11.9687 12.0496H11.9775" stroke="#292D32" stroke-width="2" stroke-linecap="round" stroke-linejoin="round"/>
<path d="M8.55426 12.0496H8.56304" stroke="#292D32" stroke-width="2" stroke-linecap="round" stroke-linejoin="round"/>
<path d="M5.13933 12.0496H5.14811" stroke="#292D32" stroke-width="2" stroke-linecap="round" stroke-linejoin="round"/>
</svg>
