<svg width="48" height="40" viewBox="0 0 48 40" fill="none" xmlns="http://www.w3.org/2000/svg">
<g clip-path="url(#clip0_0_123)">
<path d="M7.38272 13.7555C7.59605 13.1928 8.40338 13.1928 8.61738 13.7555L9.99738 17.5782C10.0941 17.8315 10.3401 18.0002 10.6147 18.0002H14.0061C14.6327 18.0002 14.9061 18.7802 14.4134 19.1622L12.0001 21.3335C11.8919 21.4166 11.8129 21.5318 11.7744 21.6626C11.7358 21.7934 11.7397 21.933 11.7854 22.0615L12.6667 25.7968C12.8814 26.3968 12.1867 26.9122 11.6614 26.5428L8.38338 24.4628C8.27113 24.3839 8.13726 24.3416 8.00005 24.3416C7.86284 24.3416 7.72898 24.3839 7.61672 24.4628L4.33872 26.5428C3.81405 26.9122 3.11872 26.3962 3.33338 25.7968L4.21472 22.0615C4.26044 21.933 4.26429 21.7934 4.22572 21.6626C4.18716 21.5318 4.10816 21.4166 4.00005 21.3335L1.58672 19.1622C1.09338 18.7802 1.36805 18.0002 1.99338 18.0002H5.38472C5.51825 18.0006 5.64876 17.9605 5.759 17.8851C5.86923 17.8098 5.95399 17.7027 6.00205 17.5782L7.38205 13.7555H7.38272Z" stroke="#D9D9D9" stroke-linecap="round" stroke-linejoin="round"/>
</g>
<defs>
<clipPath id="clip0_0_123">
<rect width="16" height="16" fill="white" transform="translate(0 12)"/>
</clipPath>
</defs>
</svg>
