<svg width="22" height="21" viewBox="0 0 22 21" fill="none" xmlns="http://www.w3.org/2000/svg">
<path d="M10.995 13.4902C12.6896 13.4902 14.0634 12.1164 14.0634 10.4218C14.0634 8.72719 12.6896 7.35343 10.995 7.35343C9.30039 7.35343 7.92663 8.72719 7.92663 10.4218C7.92663 12.1164 9.30039 13.4902 10.995 13.4902Z" stroke="#292D32" stroke-width="1.5" stroke-miterlimit="10" stroke-linecap="round" stroke-linejoin="round"/>
<path d="M0.767093 11.3219V9.52175C0.767093 8.45805 1.63647 7.57845 2.7104 7.57845C4.56165 7.57845 5.31851 6.26927 4.38777 4.66349C3.85592 3.74298 4.17299 2.54631 5.10373 2.01446L6.87316 1.0019C7.68116 0.521186 8.72441 0.807568 9.20512 1.61557L9.31763 1.8099C10.2381 3.41569 11.7519 3.41569 12.6826 1.8099L12.7951 1.61557C13.2758 0.807568 14.3191 0.521186 15.1271 1.0019L16.8965 2.01446C17.8273 2.54631 18.1443 3.74298 17.6125 4.66349C16.6817 6.26927 17.4386 7.57845 19.2898 7.57845C20.3535 7.57845 21.2331 8.44782 21.2331 9.52175V11.3219C21.2331 12.3856 20.3638 13.2652 19.2898 13.2652C17.4386 13.2652 16.6817 14.5743 17.6125 16.1801C18.1443 17.1109 17.8273 18.2973 16.8965 18.8291L15.1271 19.8417C14.3191 20.3224 13.2758 20.036 12.7951 19.228L12.6826 19.0337C11.7621 17.4279 10.2484 17.4279 9.31763 19.0337L9.20512 19.228C8.72441 20.036 7.68116 20.3224 6.87316 19.8417L5.10373 18.8291C4.17299 18.2973 3.85592 17.1006 4.38777 16.1801C5.31851 14.5743 4.56165 13.2652 2.7104 13.2652C1.63647 13.2652 0.767093 12.3856 0.767093 11.3219Z" stroke="#292D32" stroke-width="1.5" stroke-miterlimit="10" stroke-linecap="round" stroke-linejoin="round"/>
</svg>
