<svg width="48" height="48" viewBox="0 0 48 48" fill="none" xmlns="http://www.w3.org/2000/svg">
<rect width="48" height="48" fill="#FBFBFB"/>
<g clip-path="url(#clip0_0_132)">
<path d="M7.38272 23.7555C7.59605 23.1928 8.40338 23.1928 8.61738 23.7555L9.99738 27.5782C10.0941 27.8315 10.3401 28.0002 10.6147 28.0002H14.0061C14.6327 28.0002 14.9061 28.7802 14.4134 29.1622L12.0001 31.3335C11.8919 31.4166 11.8129 31.5318 11.7744 31.6626C11.7358 31.7934 11.7397 31.933 11.7854 32.0615L12.6667 35.7968C12.8814 36.3968 12.1867 36.9122 11.6614 36.5428L8.38338 34.4628C8.27113 34.3839 8.13726 34.3416 8.00005 34.3416C7.86284 34.3416 7.72897 34.3839 7.61672 34.4628L4.33872 36.5428C3.81405 36.9122 3.11872 36.3962 3.33338 35.7968L4.21472 32.0615C4.26044 31.933 4.26429 31.7934 4.22572 31.6626C4.18716 31.5318 4.10816 31.4166 4.00005 31.3335L1.58672 29.1622C1.09338 28.7802 1.36805 28.0002 1.99338 28.0002H5.38472C5.51825 28.0006 5.64876 27.9605 5.759 27.8851C5.86923 27.8098 5.95399 27.7027 6.00205 27.5782L7.38205 23.7555H7.38272Z" fill="#D9D9D9" stroke="#D9D9D9" stroke-linecap="round" stroke-linejoin="round"/>
</g>
<rect y="46" width="48" height="2" fill="#DFE1E6"/>
<defs>
<clipPath id="clip0_0_132">
<rect width="16" height="16" fill="white" transform="translate(0 22)"/>
</clipPath>
</defs>
</svg>
