<svg width="35" height="32" viewBox="0 0 35 32" fill="none" xmlns="http://www.w3.org/2000/svg">
<g clip-path="url(#clip0_1_2734)">
<path d="M18.1146 11.6698C20.9516 9.14615 25.233 8.95467 27.6667 11.2426C30.089 13.5197 29.8648 17.3574 27.0146 19.8929C24.1776 22.4165 19.8962 22.608 17.4625 20.32C17.1054 19.9843 16.8123 19.5997 16.5781 19.196C16.0366 19.6478 15.2465 19.673 14.792 19.2458L13.6136 18.1379L12.2399 19.3599C11.698 19.842 10.8819 19.8785 10.417 19.4414L9.23855 18.3336L8.25737 19.2064C7.49872 19.8813 6.35611 19.9324 5.70527 19.3206L4.02178 17.738C3.37094 17.1261 3.45834 16.083 4.21699 15.4082L5.92158 13.8918C6.49404 13.3826 7.23821 13.0776 7.99029 13.0439L17.0842 12.6373C17.1636 12.6337 17.2548 12.5928 17.3224 12.5106C17.5516 12.2325 17.8107 11.9402 18.1146 11.6698ZM25.6332 16.44C26.1751 15.9579 26.2374 15.2128 25.7726 14.7758C25.3077 14.3388 24.4916 14.3753 23.9497 14.8574C23.4078 15.3394 23.3453 16.0844 23.8102 16.5215C24.2751 16.9585 25.0913 16.922 25.6332 16.44Z" fill="#ABB1BB"/>
</g>
<defs>
<clipPath id="clip0_1_2734">
<rect width="22.1503" height="25.1783" fill="white" transform="matrix(0.729628 0.685906 -0.748211 0.665585 18.8386 0)"/>
</clipPath>
</defs>
</svg>
