<svg width="48" height="20" viewBox="0 0 48 20" fill="none" xmlns="http://www.w3.org/2000/svg">
<g clip-path="url(#clip0_0_62)">
<path d="M7.38272 3.7555C7.59605 3.19283 8.40338 3.19283 8.61738 3.7555L9.99738 7.57816C10.0941 7.8315 10.3401 8.00016 10.6147 8.00016H14.0061C14.6327 8.00016 14.9061 8.78016 14.4134 9.16216L12.0001 11.3335C11.8919 11.4166 11.8129 11.5318 11.7744 11.6626C11.7358 11.7934 11.7397 11.933 11.7854 12.0615L12.6667 15.7968C12.8814 16.3968 12.1867 16.9122 11.6614 16.5428L8.38338 14.4628C8.27113 14.3839 8.13726 14.3416 8.00005 14.3416C7.86284 14.3416 7.72897 14.3839 7.61672 14.4628L4.33872 16.5428C3.81405 16.9122 3.11872 16.3962 3.33338 15.7968L4.21472 12.0615C4.26044 11.933 4.26429 11.7934 4.22572 11.6626C4.18716 11.5318 4.10816 11.4166 4.00005 11.3335L1.58672 9.16216C1.09338 8.78016 1.36805 8.00016 1.99338 8.00016H5.38472C5.51825 8.00061 5.64876 7.9605 5.759 7.88514C5.86923 7.80979 5.95399 7.70274 6.00205 7.57816L7.38205 3.7555H7.38272Z" fill="#D9D9D9" stroke="#D9D9D9" stroke-linecap="round" stroke-linejoin="round"/>
</g>
<defs>
<clipPath id="clip0_0_62">
<rect width="16" height="16" fill="white" transform="translate(0 2)"/>
</clipPath>
</defs>
</svg>
