<svg width="21" height="20" viewBox="0 0 21 20" fill="none" xmlns="http://www.w3.org/2000/svg">
<path d="M17.8176 13.8979L17.4215 14.4851L16.9728 15.0374L16.4748 15.5507L15.9313 16.021L15.3465 16.4448L14.7248 16.8189L14.071 17.1403L13.3899 17.4068L12.6869 17.6161L11.9673 17.7668L11.2364 17.8577L10.5 17.888L9.76357 17.8577L9.03274 17.7668L8.31308 17.6161L7.61006 17.4068L6.92904 17.1403L6.2752 16.8189L5.6535 16.4448L5.0687 16.021L4.52522 15.5507L4.02722 15.0374L3.57848 14.4851L3.18242 13.8979L2.84205 13.2804L2.55996 12.6372L2.3383 11.9733L2.17876 11.2936L2.08254 10.6034L2.05039 9.90784L2.08254 9.21232L2.17876 8.5221L2.3383 7.84242L2.55996 7.17846L2.84205 6.53527L3.18242 5.91775L3.57848 5.33059L4.02722 4.77828L4.52522 4.265L5.0687 3.79466L5.6535 3.37085L6.2752 2.9968L6.92904 2.67534L7.61006 2.40892L8.31308 2.19957L9.03274 2.04889" stroke="#F2DDB8" stroke-width="4" stroke-linecap="round"/>
<path d="M11.9673 2.04889L12.6869 2.19957L13.39 2.40892L14.071 2.67534L14.7248 2.9968L15.3465 3.37085L15.9313 3.79466L16.4748 4.265L16.9728 4.77828L17.4215 5.33059L17.8176 5.91775L18.158 6.53527L18.4401 7.17846L18.6617 7.84242L18.8213 8.5221L18.9175 9.21232L18.9496 9.90784L18.9175 10.6034L18.8213 11.2936" stroke="#795A0C" stroke-width="4" stroke-linecap="round"/>
</svg>
