<svg width="15" height="15" viewBox="0 0 15 15" fill="none" xmlns="http://www.w3.org/2000/svg">
<path d="M6.85453 0.964479C7.0777 0.375889 7.92222 0.375889 8.14608 0.964479L9.58966 4.96326C9.69078 5.22827 9.94812 5.40471 10.2354 5.40471H13.783C14.4386 5.40471 14.7245 6.22064 14.2091 6.62024L11.6846 8.89161C11.5715 8.97855 11.4889 9.09907 11.4485 9.23588C11.4082 9.3727 11.4122 9.51877 11.46 9.65315L12.382 13.5606C12.6065 14.1882 11.8799 14.7273 11.3303 14.341L7.9013 12.1651C7.78387 12.0826 7.64384 12.0383 7.50031 12.0383C7.35678 12.0383 7.21674 12.0826 7.09931 12.1651L3.67029 14.341C3.12145 14.7273 2.39408 14.1875 2.61864 13.5606L3.54058 9.65315C3.5884 9.51877 3.59243 9.3727 3.55209 9.23588C3.51175 9.09907 3.42911 8.97855 3.31602 8.89161L0.7915 6.62024C0.275437 6.22064 0.562758 5.40471 1.2169 5.40471H4.76448C4.90416 5.40517 5.04069 5.36321 5.156 5.28439C5.27132 5.20556 5.35998 5.09358 5.41026 4.96326L6.85384 0.964479H6.85453Z" stroke="#D9D9D9" stroke-linecap="round" stroke-linejoin="round"/>
</svg>
