<svg width="23" height="22" viewBox="0 0 23 22" fill="none" xmlns="http://www.w3.org/2000/svg">
<path d="M11.4708 2.05612L12.2914 2.09016L13.1057 2.192L13.9075 2.36088L14.6908 2.59551L15.4496 2.8941L16.1782 3.25439L16.8709 3.67362L17.5225 4.14861L18.128 4.67575L18.6829 5.25102L19.1829 5.87004L19.6242 6.5281L20.0034 7.2202L20.3177 7.94107L20.5647 8.68522L20.7425 9.44698L20.8497 10.2206L20.8855 11.0001L20.8497 11.7796L20.7425 12.5532L20.5647 13.315L20.3177 14.0591L20.0034 14.78L19.6242 15.4721L19.1829 16.1301L18.6829 16.7492L18.128 17.3244L17.5225 17.8516L16.8709 18.3266L16.1782 18.7458L15.4496 19.1061L14.6908 19.4047L13.9075 19.6393L13.1057 19.8082L12.2914 19.91L11.4708 19.944L10.6503 19.91L9.83597 19.8082L9.03411 19.6393L8.2508 19.4047L7.492 19.1061L6.76347 18.7458L6.07077 18.3266L5.41917 17.8516L4.81362 17.3244L4.25874 16.7492L3.75875 16.1301L3.31745 15.4721L2.9382 14.78L2.6239 14.0591L2.37692 13.315L2.19915 12.5532L2.09195 11.7796L2.05612 11.0001L2.09195 10.2206L2.19915 9.44698L2.37692 8.68522L2.6239 7.94107L2.9382 7.2202L3.31745 6.5281L3.75875 5.87004L4.25874 5.25102L4.81362 4.67575L5.41917 4.14861L6.07077 3.67362L6.76347 3.25439L7.492 2.8941L8.2508 2.59551L9.03411 2.36088L9.83597 2.192L10.6503 2.09016L11.4708 2.05612Z" stroke="#376A3E" stroke-width="4" stroke-linecap="round"/>
</svg>
